<svg width="174" height="72" viewBox="0 0 174 72" fill="none" xmlns="http://www.w3.org/2000/svg">
<g clip-path="url(#clip0_7_2)">
<path fill-rule="evenodd" clip-rule="evenodd" d="M134.426 54.1951H129.51L131.787 47.3062H138.686L137.032 52.3173C136.652 53.4542 135.633 54.1951 134.432 54.1951M125.245 47.3062H130.161L127.884 54.1951H120.985L122.639 49.184C123.019 48.0471 124.038 47.3062 125.239 47.3062H125.245ZM157.36 34.6143H157.406C157.762 34.5973 158.108 34.5068 158.425 34.3484C158.997 34.06 159.462 33.5623 159.677 32.9175L165.454 15.9497H173.48L172.795 17.9123H171.951L171.6 18.9983L166.123 35.0781C165.307 37.5158 163.585 39.3879 161.461 40.4455C159.971 41.1865 158.283 41.5315 156.567 41.3901H145.296L149.6 28.421H148.167C147.811 28.438 147.465 28.5285 147.148 28.6869C146.576 28.9753 146.111 29.473 145.896 30.1178L145.092 32.5895L142.888 39.3766C142.073 41.8143 140.351 43.6864 138.227 44.7441C136.743 45.485 135.049 45.83 133.333 45.6886H122.169L122.973 43.2113L124.384 38.9184L124.984 37.0859L127.816 28.4267H135.638L134.981 30.395H134.324L132.959 34.5521L131.538 38.9241H134.171C134.528 38.9071 134.874 38.8166 135.191 38.6583C135.763 38.3698 136.227 37.8721 136.443 37.2273L137.944 32.5951H137.938L139.45 27.9686C140.266 25.5309 141.988 23.6587 144.112 22.6011C145.596 21.8602 147.289 21.5151 149.006 21.6565H160.277L157.887 28.421H156.839C156.154 30.4854 155.474 32.5499 154.8 34.6256H157.36V34.6143Z" fill="#4EB3A7"/>
<path fill-rule="evenodd" clip-rule="evenodd" d="M79.0312 54.1951H74.1147L76.3917 47.3062H83.2906L81.6367 52.3173C81.2628 53.4541 80.2376 54.1951 79.0368 54.1951" fill="#17A3DD"/>
<path fill-rule="evenodd" clip-rule="evenodd" d="M69.8439 47.3062H74.7603L72.4833 54.1951H65.5845L67.2384 49.1839C67.6122 48.0414 68.6374 47.3062 69.8382 47.3062" fill="#17A3DD"/>
<path fill-rule="evenodd" clip-rule="evenodd" d="M90.9033 38.2396L94.2055 28.4096H92.7724C92.4156 28.4266 92.0701 28.5171 91.7529 28.6754C91.1808 28.9639 90.7164 29.4616 90.5011 30.1064L89.6968 32.578L87.4935 39.3652C86.6779 41.8029 84.956 43.675 82.8319 44.7326C81.348 45.4736 79.6544 45.8186 77.9382 45.6772H66.6553L68.8869 38.8222L70.5748 33.6583L72.2967 28.4153H79.9489L79.2919 30.3835H78.7991L77.4341 34.5406L76.0124 38.9127H78.7764C79.1333 38.8957 79.4788 38.8052 79.796 38.6469C80.3681 38.3584 80.8325 37.8607 81.0477 37.2159L82.5487 32.5837H82.5431L84.0554 27.9571C84.871 25.5194 86.5929 23.6473 88.7169 22.5897C90.2009 21.8487 91.8945 21.5037 93.6107 21.6451H103.642L100.855 30.1856C100.402 31.5543 99.9375 32.9287 99.4787 34.3031C98.6744 36.6956 96.5277 38.2396 94.0016 38.2396H90.9033Z" fill="#17A3DD"/>
<path fill-rule="evenodd" clip-rule="evenodd" d="M115.548 30.3159H114.681L115.338 28.3476H116.194L116.443 28.3419H123.359L120.646 36.5543L120.623 36.6166L120.6 36.6731L119.224 40.5701C118.301 42.38 116.834 43.7883 115.1 44.648C113.616 45.3889 111.923 45.7339 110.207 45.5925H98.9351L102.605 34.5408H102.617L103.483 31.8712L108.558 15.9045H115.78L116.488 15.9102L115.848 17.8728H115.163L110.224 33.3983V33.4153C109.623 35.2139 109.028 37.0181 108.439 38.8224H111.045C111.402 38.8054 111.747 38.7149 112.064 38.5565C112.637 38.2681 113.101 37.7704 113.316 37.1256L115.554 30.2876L115.548 30.3159Z" fill="#17A3DD"/>
<path fill-rule="evenodd" clip-rule="evenodd" d="M106.717 54.1951H101.801L104.078 47.3062H110.977L109.323 52.3173C108.949 53.4541 107.924 54.1951 106.723 54.1951" fill="#17A3DD"/>
<mask id="mask0_7_2" style="mask-type:luminance" maskUnits="userSpaceOnUse" x="0" y="0" width="64" height="47">
<path d="M2.5035 18.8964C2.93963 19.1679 3.38143 19.4281 3.8289 19.6713C4.54824 20.0615 4.96738 20.8194 4.87109 21.5547L4.8541 21.7017C4.78613 22.2164 4.49726 22.5954 4.02714 22.782C3.55702 22.9743 3.04159 22.9234 2.53748 22.6463C2.02205 22.3578 1.51228 22.0468 1.00817 21.73C0.356802 21.3115 -3.64482e-05 20.6102 0.0905892 19.9201L0.107581 19.7957C0.175551 19.2697 0.481412 18.8794 0.974189 18.6984C1.46697 18.5175 2.00505 18.5853 2.5035 18.9021M9.62893 15.0843C10.0707 15.3501 10.5125 15.599 10.9657 15.8365C11.6907 16.2155 12.1211 16.9677 12.0418 17.703L12.0248 17.8501C11.9682 18.3647 11.6907 18.7493 11.2262 18.953C10.7618 19.1566 10.2463 19.117 9.74222 18.8455C9.22112 18.5627 8.71135 18.2686 8.20158 17.9519C7.54454 17.5446 7.17638 16.8433 7.25001 16.1533L7.26134 16.0232C7.31798 15.4915 7.61818 15.1013 8.09963 14.9033C8.58674 14.711 9.12483 14.7732 9.62893 15.0787V15.0843ZM6.62696 5.3448C7.0631 5.62194 7.49923 5.88777 7.9467 6.13663C8.66037 6.5382 9.07385 7.29609 8.96623 8.03136L8.94358 8.17842C8.86994 8.68745 8.57541 9.06074 8.10529 9.24739C7.63517 9.43403 7.11407 9.37747 6.61563 9.08902C6.1002 8.79491 5.59609 8.48384 5.09765 8.15579C4.45195 7.7316 4.10077 7.02461 4.20273 6.34024L4.21972 6.21581C4.29335 5.68981 4.60488 5.3052 5.09765 5.12987C5.59043 4.95454 6.12852 5.02806 6.62696 5.35045V5.3448ZM17.6097 15.3275C15.5706 14.6601 13.6108 13.6873 11.787 12.443C11.0336 11.9283 10.6655 11.0516 10.875 10.2768L10.8977 10.1976C11.045 9.66593 11.4075 9.30395 11.9456 9.15689C12.4836 9.00984 13.0501 9.12296 13.5655 9.47363C15.0325 10.4804 16.6184 11.2666 18.2667 11.8039C18.7934 11.9735 19.2069 12.3072 19.4958 12.788C19.7847 13.2688 19.864 13.7608 19.7337 14.2416L19.711 14.3208C19.4731 15.1974 18.5556 15.6329 17.604 15.3219L17.6097 15.3275ZM16.4259 7.14338C16.2956 7.08682 16.1596 7.03026 16.0294 6.9737C15.0835 6.56082 14.1659 6.08572 13.2766 5.56538C12.4893 5.10159 12.0588 4.24755 12.2061 3.4444L12.2231 3.35956C12.325 2.81094 12.6536 2.42068 13.1747 2.22838C13.6958 2.04173 14.2565 2.1096 14.7946 2.42634C15.5309 2.86184 16.2956 3.2521 17.0772 3.59711C17.2075 3.65367 17.3434 3.71023 17.4737 3.76679C18.7085 4.35501 20.0282 4.79617 21.4103 5.062C25.766 5.90473 28.5017 4.63215 31.3338 3.31997C34.8625 1.68541 38.5102 -0.005714 45.0466 1.25556C49.238 2.06436 53.1179 3.97606 56.3748 6.61738C59.0879 8.82319 61.3648 11.5267 63.0187 14.5244C63.7607 15.8761 63.925 17.2336 63.4889 18.5344L54.6359 44.9589C54.5113 45.3266 54.1827 45.5358 53.7749 45.5076C53.3615 45.4849 52.9876 45.2304 52.7894 44.8458C51.5433 42.4307 49.9856 40.2532 48.1788 38.4263C48.1335 38.3811 48.0882 38.3358 48.0429 38.2906C47.5218 37.7307 46.9667 37.199 46.3776 36.7069C44.2253 34.9083 41.6254 33.6018 38.7934 33.0532C38.6631 33.0249 38.5272 33.0023 38.3969 32.9797H38.3912C34.3131 32.2953 31.651 33.5226 28.9039 34.7896C25.3525 36.4241 21.6821 38.1153 15.1571 36.8596C12.376 36.3223 9.73089 35.2986 7.31232 33.8959C6.41172 33.3756 5.53945 32.7987 4.70683 32.1765C3.9705 31.6279 3.64764 30.7399 3.90253 29.982L3.93085 29.9028C4.10644 29.3825 4.49159 29.0431 5.04101 28.9244C5.59043 28.8056 6.15118 28.947 6.65528 29.3203C7.3463 29.835 8.06564 30.3157 8.8133 30.7456C10.8014 31.8994 12.9934 32.7421 15.31 33.1889C20.6796 34.224 23.8345 32.7704 26.8874 31.3677C30.2349 29.8237 33.4805 28.3305 38.9463 29.3825C42.5204 30.0725 45.8112 31.7297 48.547 34.0147C50.1103 35.3212 51.4866 36.837 52.6308 38.4942L60.0394 16.3908C58.6517 13.6986 56.6693 11.2666 54.2734 9.32657C51.5943 7.15469 48.3884 5.57669 44.9049 4.90363C39.5297 3.86294 36.3975 5.31652 33.3615 6.72484C30.0197 8.27457 26.7855 9.77339 21.2687 8.71007C19.5921 8.38769 17.9722 7.84472 16.4315 7.12076L16.4259 7.14338ZM48.7905 41.9613L47.6973 45.3492C47.5727 45.7338 47.2499 45.9827 46.8421 46.0053C46.4343 46.0279 46.0661 45.813 45.8735 45.451C44.6614 43.1434 43.1321 41.1186 41.3592 39.4783C41.3139 39.4387 41.2686 39.3935 41.2233 39.3539C40.7135 38.8449 40.1698 38.3698 39.5864 37.9399C37.468 36.3619 34.9078 35.3325 32.1097 35.1006C31.9795 35.0893 31.8492 35.078 31.7189 35.0724H31.7133C31.0902 35.0384 30.4955 35.0441 29.9347 35.0893C32.1664 34.1109 34.4943 33.353 37.8022 33.9072H37.8078C37.9324 33.9299 38.0571 33.9525 38.1873 33.9751C40.8948 34.5011 43.387 35.7511 45.443 37.4705C46.0095 37.9399 46.5419 38.449 47.0347 38.9863C47.08 39.0315 47.1253 39.0768 47.1649 39.1164C47.6124 39.5688 48.0429 40.0383 48.4563 40.536C48.8188 40.9715 48.9435 41.4918 48.7905 41.9613ZM12.9311 28.8678C10.9317 28.2117 9.02287 27.2502 7.27267 26.0172C6.54766 25.5082 6.22481 24.6315 6.47403 23.851L6.50235 23.7718C6.67227 23.2345 7.05743 22.8725 7.60119 22.7198C8.14494 22.5671 8.70568 22.6746 9.19846 23.0309C10.6145 24.0263 12.1495 24.8069 13.7694 25.3385C14.2848 25.5082 14.6813 25.8362 14.9475 26.317C15.2137 26.7977 15.2647 27.2898 15.1118 27.7762L15.0891 27.8554C14.8059 28.7377 13.8713 29.1789 12.9368 28.8735L12.9311 28.8678Z" fill="white"/>
</mask>
<g mask="url(#mask0_7_2)">
<path d="M63.9194 0H0V46.028H63.9194V0Z" fill="url(#paint0_linear_7_2)"/>
</g>
<path d="M62.8373 64.817L63.2508 63.4257C63.5 62.5773 63.1602 62.0343 62.4295 62.0343C61.6989 62.0343 61.0928 62.6225 60.8662 63.3861C60.6227 64.2062 60.9285 64.8227 61.6762 64.8227H62.843L62.8373 64.817ZM64.5252 66.74H64.2477H62.2936C62.3106 66.7118 62.3276 66.6835 62.3446 66.6552C62.169 66.7118 61.7555 66.74 61.0815 66.74C59.201 66.74 58.2268 65.377 58.7932 63.4653C59.3709 61.5253 61.1098 60.2188 63.0186 60.2188C64.9274 60.2188 65.7997 61.5988 65.2333 63.5048L64.8424 64.8114H64.9784L64.5139 66.7344L64.5252 66.74Z" fill="#606163"/>
<path d="M162.373 57.453L160.362 64.2118C159.864 65.8916 158.906 66.74 157.496 66.74H156.244L156.539 65.7503H157.456C158.074 65.7503 158.538 65.5466 158.855 65.1451C159.076 64.8849 159.286 64.4268 159.479 63.765L161.359 57.4473H162.367L162.373 57.453ZM156.488 66.74H151.526L151.821 65.7503H152.738C153.356 65.7503 153.82 65.5466 154.137 65.162C154.364 64.8905 154.573 64.4324 154.766 63.7707L156.646 57.453H157.655L155.644 64.2118C155.463 64.8283 155.219 65.343 154.919 65.7333H156.788L156.488 66.74ZM151.832 66.74H143.194L143.494 65.7333H148.813C149.193 64.455 149.272 63.42 149.028 62.6451C148.734 61.7119 147.986 61.2255 146.814 61.152H146.423L146.706 60.2074C149.736 60.2074 150.79 62.0456 149.85 65.7333H152.138L151.838 66.74H151.832ZM142.01 63.3804C142.435 61.9438 142.05 61.0671 140.872 61.0671C139.592 61.0671 138.646 62.0286 138.193 63.5501C137.768 64.9867 138.193 65.903 139.377 65.903C140.628 65.903 141.512 65.0546 142.01 63.3748V63.3804ZM143.087 63.4822C142.532 65.3487 140.94 66.74 139.127 66.74H134.024L134.324 65.7333H137.128C136.822 65.1564 136.799 64.4155 137.077 63.4935C137.632 61.6271 139.212 60.2357 141.082 60.2357C142.951 60.2357 143.67 61.5253 143.092 63.4822H143.087ZM134.341 66.74H131.311L131.611 65.7333H134.641L134.341 66.74ZM131.492 66.74H128.462L128.762 65.7333H131.792L131.492 66.74ZM128.649 66.74H125.619L125.919 65.7333H128.949L128.649 66.74ZM125.8 66.74H122.77L123.07 65.7333H126.1L125.8 66.74ZM122.956 66.74H119.926L120.226 65.7333H123.257L122.956 66.74ZM120.107 66.74H117.077L117.377 65.7333H120.408L120.107 66.74ZM117.264 66.74H114.234L114.534 65.7333H117.564L117.264 66.74ZM114.721 66.74H114.33C112.387 66.74 111.254 65.2356 111.753 63.2673H108.547C107.108 63.2673 105.879 64.2571 105.437 65.7503C105.03 67.1303 105.647 68.0466 107.182 68.0466H108.994L108.677 69.1099H106.865C104.809 69.1099 103.738 67.7751 104.361 65.6767C104.843 64.0535 106.225 62.7074 107.765 62.3454C107.612 61.8873 107.646 61.299 107.856 60.592C108.405 58.7426 109.872 57.436 111.611 57.436C113.05 57.436 113.854 58.2109 113.747 59.3873L112.619 59.5004C112.733 58.5955 112.319 58.1487 111.413 58.1487C110.292 58.1487 109.408 59.0367 108.955 60.5751C108.774 61.1803 108.808 61.7402 109.051 62.2379H112.92L112.75 62.8092C112.263 64.4437 113.05 65.722 115.015 65.722L114.715 66.7287L114.721 66.74ZM99.4788 66.74H97.468L100.221 57.4813H102.232L99.4788 66.74ZM96.8279 63.9686C96.6014 64.7265 96.1992 65.36 95.6328 65.8634C94.9815 66.4516 94.2395 66.74 93.3898 66.74H91.4924L92.0644 64.817H93.5428C94.2168 64.817 94.7039 64.3419 94.9815 63.4087L96.743 57.4926H98.7537L96.8279 63.9686ZM89.0568 63.8555C89.7365 63.4539 90.1726 62.911 90.3822 62.204C90.6484 61.299 90.2972 60.5524 89.3344 60.5524C88.8586 60.5524 88.4338 60.7221 88.0373 61.0558C87.6974 61.3726 87.4539 61.7572 87.3236 62.204C87.114 62.9053 87.2273 63.4539 87.6634 63.8555C87.8447 64.0252 88.0316 64.1722 88.2242 64.2854C88.4904 64.1722 88.7623 64.0252 89.0568 63.8555ZM92.2514 66.74H91.0846C89.6912 66.74 88.547 66.5704 87.6465 66.2084C86.5363 66.5647 85.2902 66.74 83.8968 66.74H82.5884L83.1605 64.817H84.4689C85.1033 64.817 85.4998 64.7718 85.681 64.7039C85.2732 64.0026 85.1882 63.2107 85.4488 62.351C85.5564 61.9947 85.7263 61.6214 85.9472 61.2594C86.8195 59.8681 88.2922 58.9914 89.7988 58.9914C91.3055 58.9914 92.2684 59.8681 92.3023 61.2594C92.308 61.6158 92.257 61.9891 92.1494 62.351C91.8945 63.2107 91.3394 64.0026 90.5125 64.7039C90.6654 64.7774 91.0392 64.817 91.6566 64.817H92.8234L92.2514 66.74ZM83.0529 66.74H79.9773L80.5493 64.817H83.6249L83.0529 66.74ZM80.2038 66.74H77.1282L77.7003 64.817H80.7759L80.2038 66.74ZM77.3604 66.74H74.2848L74.8569 64.817H77.9325L77.3604 66.74ZM74.5114 66.74H71.4358L72.0079 64.817H75.0835L74.5114 66.74ZM71.668 66.74H68.5924L69.1645 64.817H72.2401L71.668 66.74ZM68.819 66.74H65.7434L66.3154 64.817H69.3911L68.819 66.74ZM66.1342 66.74H62.2826C62.2826 66.74 62.3166 66.6835 62.3336 66.6552C62.1637 66.7118 61.7615 66.74 61.1045 66.74H61.0705C59.19 66.74 58.2158 65.377 58.7822 63.4653C59.3599 61.5253 61.0988 60.2188 63.0076 60.2188C64.3273 60.2188 65.1826 60.9257 65.3526 62.0286H62.4129C61.6482 62.0286 61.0762 62.6169 60.8496 63.3804C60.606 64.2005 60.9119 64.817 61.6596 64.817H66.7063L66.1342 66.74ZM51.9173 64.4437C51.4812 65.7389 50.6712 66.8305 49.4648 67.7185C48.196 68.6517 46.8479 69.1268 45.3979 69.1268H45.313C43.863 69.1268 42.7811 68.6517 42.0674 67.7185C41.3538 66.7853 41.2122 65.6202 41.6256 64.2288L42.1411 62.5037H44.1518L43.693 64.0422C43.5231 64.6191 43.4608 65.1168 43.5061 65.5466C43.6421 66.5817 44.537 67.2547 45.9134 67.2547C47.2897 67.2547 48.5698 66.5817 49.3232 65.5466C49.5441 65.2299 49.7423 64.8566 49.8952 64.4437H47.6579C45.9643 64.308 45.1204 62.9902 45.6585 61.1803C46.2362 59.2403 47.9751 57.9338 49.8839 57.9338C51.5265 57.9338 52.4554 59.0367 52.2288 60.6316H50.1954C50.1954 60.0774 49.8669 59.7437 49.2892 59.7437C48.5245 59.7437 47.9524 60.3319 47.7259 61.0954C47.4823 61.9155 47.7882 62.532 48.5358 62.532H50.1275H50.1784H52.4611L51.9003 64.4437H51.9173Z" fill="#606163"/>
<path fill-rule="evenodd" clip-rule="evenodd" d="M44.1515 69.8281C44.7519 69.8281 45.239 70.3145 45.239 70.9141C45.239 71.5136 44.7519 72 44.1515 72C43.5511 72 43.064 71.5136 43.064 70.9141C43.064 70.3145 43.5511 69.8281 44.1515 69.8281Z" fill="#606163"/>
<path fill-rule="evenodd" clip-rule="evenodd" d="M46.8873 69.8281C47.4877 69.8281 47.9748 70.3145 47.9748 70.9141C47.9748 71.5136 47.4877 72 46.8873 72C46.2869 72 45.7998 71.5136 45.7998 70.9141C45.7998 70.3145 46.2869 69.8281 46.8873 69.8281Z" fill="#606163"/>
<path fill-rule="evenodd" clip-rule="evenodd" d="M91.6676 56.22C92.268 56.22 92.7551 56.7064 92.7551 57.3059C92.7551 57.9054 92.268 58.3918 91.6676 58.3918C91.0672 58.3918 90.5801 57.9054 90.5801 57.3059C90.5801 56.7064 91.0672 56.22 91.6676 56.22Z" fill="#606163"/>
<path fill-rule="evenodd" clip-rule="evenodd" d="M142.792 57.4924C143.239 57.4924 143.602 57.8544 143.602 58.3012C143.602 58.748 143.239 59.11 142.792 59.11C142.344 59.11 141.982 58.748 141.982 58.3012C141.982 57.8544 142.344 57.4924 142.792 57.4924Z" fill="#606163"/>
<path d="M64.5255 65.9821C64.1347 67.2999 63.5173 68.2444 62.6677 68.8383C61.8804 69.3926 60.7929 69.6697 59.4165 69.6697L59.898 68.0465C61.2177 68.0465 62.0673 67.413 62.4468 66.1517L62.8489 64.8113H64.8767L64.5255 65.9821Z" fill="#606163"/>
<path d="M56.7882 65.9821C56.3974 67.3 55.78 68.2502 54.9304 68.8384C54.1431 69.3983 53.0612 69.6698 51.6792 69.6698L52.1606 68.0466C53.4804 68.0466 54.33 67.4131 54.7095 66.1518L56.3011 60.7957H58.3289L56.7882 65.9765V65.9821Z" fill="#606163"/>
<path fill-rule="evenodd" clip-rule="evenodd" d="M27.5558 22.4992H27.5671C27.6634 22.4992 27.7597 22.471 27.8503 22.4257C28.0089 22.3465 28.1392 22.2108 28.1958 22.0298L28.3091 21.6904H26.5872C26.0887 21.73 25.6866 21.6339 25.4091 21.4303C25.0635 21.1701 24.9163 20.7402 25.0409 20.1803L26.0604 17.1091L26.219 16.6397L26.338 16.289H28.3147L27.2782 19.3602C27.2216 19.5355 27.2556 19.6769 27.3632 19.7561C27.4198 19.8014 27.4991 19.824 27.5954 19.8296H27.6067H28.9321L30.1046 16.289H32.5232L32.3759 16.6397H31.9568L29.9687 22.6237C29.7421 23.2967 29.2606 23.8114 28.6716 24.0999C28.2581 24.3035 27.7936 24.3996 27.3235 24.36H25.46L26.0774 22.4992H27.5558ZM35.5591 19.8296H35.5705C35.6667 19.8296 35.763 19.8014 35.8537 19.7561C36.0123 19.6769 36.1425 19.5412 36.2048 19.3602L36.2275 19.298H36.2218L36.4541 18.6193C36.5107 18.4439 36.4767 18.3025 36.3691 18.2234C36.3124 18.1781 36.2332 18.1555 36.1369 18.1498H36.1255H34.5226L34.1714 19.2075L33.9675 19.8296H35.5648H35.5591ZM30.0933 23.9358H30.6314C30.739 23.6135 30.8466 23.2854 30.9599 22.963H30.9259L30.9429 22.9121C31.2657 21.9506 31.5829 21.0004 31.9001 20.0446H31.8888L31.9058 19.9937C32.3249 18.755 32.7327 17.522 33.1406 16.289H37.1337C37.6322 16.2494 38.0343 16.3456 38.3119 16.5492C38.7027 16.8433 38.8386 17.358 38.6177 18.0254L38.3968 18.6815H38.4025L37.972 19.9541C37.7398 20.6271 37.2584 21.1418 36.675 21.4303C36.2615 21.6339 35.797 21.73 35.3269 21.6904H33.3501L32.4948 24.2865H30.0196L30.1046 23.9358H30.0933ZM42.3957 21.6904H40.3396L39.4843 24.2865H37.213L37.298 23.9358H37.6322C37.7398 23.6135 37.8474 23.2854 37.9607 22.963H37.9267L37.9437 22.9121C38.2666 21.9506 38.5838 21.0004 38.9009 20.0446H38.8896L38.9066 19.9937C39.3258 18.755 39.7279 17.522 40.1414 16.289H44.1346C44.633 16.2494 45.0352 16.3456 45.3127 16.5492C45.7035 16.8433 45.8395 17.358 45.6186 18.0254L45.341 18.8512L45.0805 19.6317L43.5455 24.2752H41.5744L41.5914 24.2243C41.716 23.8567 41.8349 23.4947 41.9596 23.127H41.9539L41.9709 23.0761L42.0162 22.9461H41.9879L42.0049 22.8952C42.1295 22.5275 42.2484 22.1655 42.373 21.7979H42.3674L42.3844 21.747L42.407 21.6791L42.3957 21.6904ZM40.957 19.8296H43.0187L43.4719 18.4609C43.4719 18.3591 43.4322 18.2799 43.3586 18.2234C43.302 18.1781 43.2227 18.1555 43.1264 18.1498H43.115H41.5121L41.1609 19.2075L40.957 19.8296ZM48.4166 22.4992H48.428C48.5242 22.4992 48.6205 22.471 48.7112 22.4257C48.8698 22.3465 49 22.2108 49.0567 22.0298L49.17 21.6904H47.4481C46.9496 21.73 46.5475 21.6339 46.2699 21.4303C45.9244 21.1701 45.7772 20.7402 45.9018 20.1803L46.9213 17.1091L47.0799 16.6397L47.1989 16.289H49.1756L48.1391 19.3602C48.0824 19.5355 48.1164 19.6769 48.2241 19.7561C48.2807 19.8014 48.36 19.824 48.4563 19.8296H48.4676H49.793L50.9655 16.289H53.384L53.2368 16.6397H52.8176L50.8295 22.6237C50.5973 23.2967 50.1215 23.8114 49.5325 24.0999C49.119 24.3035 48.6545 24.3996 48.1844 24.36H46.3209L46.9383 22.4992H48.4166ZM23.5342 22.4992H23.5229C23.4266 22.4992 23.3473 22.471 23.2907 22.4257C23.1831 22.3465 23.1491 22.2108 23.2057 22.0298L25.1485 16.289H22.7299L22.645 16.6397H23.0641L21.0477 22.6237C20.8268 23.2967 20.9627 23.8114 21.3536 24.0999C21.6254 24.3035 22.0276 24.3996 22.5317 24.36H24.4518L25.0692 22.4992H23.5512H23.5342Z" fill="#96989A"/>
</g>
<defs>
<linearGradient id="paint0_linear_7_2" x1="17.604" y1="16.9961" x2="121.195" y2="60.5403" gradientUnits="userSpaceOnUse">
<stop stop-color="#17A3DD"/>
<stop offset="1" stop-color="#A4CE39"/>
</linearGradient>
<clipPath id="clip0_7_2">
<rect width="173.486" height="72" fill="white"/>
</clipPath>
</defs>
</svg>
